<svg id="Face-Logo" data-name="Layer 1" xmlns="http://www.w3.org/2000/svg" viewBox="0 0 394.58 492.93">
  <defs>
    <style>
      .cls-1{fill:#d7dce5}.cls-2{fill:#fff}
    </style>
  </defs>
  <path class="mouth" d="M383.46 642.46H234.29a1 1 0 00-.77-.24c-1.87 0-3.74-.1-5.61-.19a102.92 102.92 0 01-12.89-1.6 119.05 119.05 0 01-21.29-5.86 116.37 116.37 0 01-18.16-8.57 125.68 125.68 0 01-19.37-14 120.78 120.78 0 01-40.43-74.77 95.55 95.55 0 01-1.14-13.07v-69.11a46.56 46.56 0 0113.29-32.61A45.94 45.94 0 01143 412.07a41.63 41.63 0 0116.55-3.79q149-.07 298 0a40.92 40.92 0 018.4 1 46.75 46.75 0 0124.46 13.7 44.2 44.2 0 016.91 9.42 45.24 45.24 0 015.93 21.32c0 .47-.16 1 .23 1.38v66c-.34.32-.24.75-.23 1.13a96.06 96.06 0 01-1.2 15.71 118.89 118.89 0 01-4.42 19.3 122.32 122.32 0 01-9.81 22.59 125.08 125.08 0 01-17.52 24 116 116 0 01-12.82 11.85A122.94 122.94 0 01436 629.36a118.62 118.62 0 01-20.59 8.08 116.4 116.4 0 01-30.68 4.79c-.44 0-.9-.13-1.27.23zM309 472.55h-97a7.11 7.11 0 00-1.31.05c-9 1.69-15.12 8.67-15.16 17.83 0 9.51-.29 19 .17 28.54a63.25 63.25 0 001.3 10.27A63.41 63.41 0 00217.38 563a65 65 0 0014.56 9.32 59.31 59.31 0 0025.19 5.79c34 .11 67.94 0 101.92 0a69.66 69.66 0 0011.16-.95 60.66 60.66 0 0022-8.29A61.61 61.61 0 00408 555.23a64.42 64.42 0 0011.26-20.42 62.2 62.2 0 003.08-19.27c.08-8.4 0-16.8 0-25.19A19.46 19.46 0 00422 487a17.39 17.39 0 00-6.1-10.44 16 16 0 00-10.39-4q-48.3-.03-96.51-.01z" transform="translate(-108.82 -149.55)"/>
  <path class="cls-2" d="M293.77 274.29v-71.86a48.2 48.2 0 00-.45-6.79 40.77 40.77 0 00-13.92-25.07 39.14 39.14 0 00-8.5-5.53 40.52 40.52 0 00-16.11-4 46.47 46.47 0 00-11.73.84 40.07 40.07 0 00-24.92 16.49 37.31 37.31 0 00-7.3 21.63q-.15 74.2 0 148.41a28.66 28.66 0 00.56 5.46 40.2 40.2 0 008.83 18.85 41.29 41.29 0 0012.13 10 38.46 38.46 0 0014.28 4.49 53.58 53.58 0 0012.53-.1 41.1 41.1 0 0022.77-11.53 41.12 41.12 0 006.79-9.06 37.16 37.16 0 005-17.78c.11-24.86.04-49.65.04-74.45zm-184.91 14.8v54.84c0 2.15 0 4.3.18 6.46a39.86 39.86 0 003.87 14.09 40.6 40.6 0 009.17 12.28 40 40 0 0012.14 7.72 41.8 41.8 0 0013.46 3 45.22 45.22 0 0011.86-.83A39.83 39.83 0 00183 372.31a40.48 40.48 0 009.05-26.31c-.08-38.67.32-77.34-.18-116a35.12 35.12 0 00-.91-7.09A40.93 40.93 0 00165 193.52a43.76 43.76 0 00-18.7-2.26 40.05 40.05 0 00-14.09 3.74 40.46 40.46 0 00-14.63 11.68 38.26 38.26 0 00-8.65 23.5c-.21 19.64-.06 39.28-.07 58.91zM497.59 225a50.11 50.11 0 00-.69-11.25 41.4 41.4 0 00-35.1-33.56 40.32 40.32 0 00-14.12.41A40.73 40.73 0 00424 194.79c-6.4 7.67-9.38 16.66-9.6 26.58a86.67 86.67 0 00.16 9.93 47.94 47.94 0 001.11 7.66 41.81 41.81 0 0038.43 31.51 37.92 37.92 0 0012.18-1.29 41.09 41.09 0 0020.88-12.82 41.59 41.59 0 009.31-18 49.4 49.4 0 001.12-13.36z" transform="translate(-108.82 -149.55)"/>
  <path class="cls-1" d="M503.38 338.65c-.37.36-.23.83-.23 1.25a64.78 64.78 0 01-4.38 21.92 63.82 63.82 0 01-28 32.86 57.75 57.75 0 01-16.27 6.19 65 65 0 01-8.13 1.18c-3.24.29-6.46.17-9.69.18-22.9 0-45.8.09-68.7 0a53.39 53.39 0 01-20.41-4.45 60.38 60.38 0 01-15.76-9.64 64.37 64.37 0 01-13.72-16.31 66.62 66.62 0 01-9-29 158.3 158.3 0 01-.15-16.3 47.91 47.91 0 014.11-17.53 49.8 49.8 0 017.79-12.56A50.68 50.68 0 01334 285.27a51.48 51.48 0 0118.86-6.55 50.44 50.44 0 017.26-.52c28 0 56-.13 84.05 0a58.05 58.05 0 0136 12.35 58.88 58.88 0 0117.92 22.67 55 55 0 014.61 16.52 45.79 45.79 0 01.45 6.19c0 .35-.08.73.23 1zm-97.3 29.52h25.54a25.88 25.88 0 005.57-.58c9.68-2.09 16.76-7.71 21.48-16.32a31.12 31.12 0 003.76-12.15c.37-3.93.41-7.82-.95-11.57a22.9 22.9 0 00-22.09-15.32h-66.55a23.49 23.49 0 00-9.22 1.69 22.37 22.37 0 00-12.4 12.15 25.3 25.3 0 00-1.37 14.42A32.81 32.81 0 00361.34 361a29.5 29.5 0 0019.56 7.14zM356.84 149.55l4.32.67a39.92 39.92 0 0117.29 7.18 41.49 41.49 0 0111.81 13.16 40.25 40.25 0 014.78 13.2 33.34 33.34 0 01.65 5.81v40.31a39.56 39.56 0 01-3.35 15.43A40.37 40.37 0 01383 258.8a41.23 41.23 0 01-21.28 11 36.55 36.55 0 01-8.79.7 43.05 43.05 0 01-18.84-5.18 41.46 41.46 0 01-11.22-9 41 41 0 01-9.21-18 36.67 36.67 0 01-1-8.28v-40.67a37 37 0 013.65-15.37 41.75 41.75 0 0110.37-14 39.24 39.24 0 0112.51-7.59 35.06 35.06 0 0112.08-2.6 1.54 1.54 0 00.54-.22z" transform="translate(-108.82 -149.55)"/>
  <path class="cls-2" d="M383.46 642.46c.37-.36.83-.23 1.26-.23a116.4 116.4 0 0030.68-4.79 118.62 118.62 0 0020.6-8.08 122.94 122.94 0 0021.39-13.76 116 116 0 0012.82-11.85 125.08 125.08 0 0017.52-24 122.32 122.32 0 009.81-22.59 118.89 118.89 0 004.42-19.3 96.06 96.06 0 001.2-15.71c0-.38-.11-.81.23-1.13v120.35c0 .9-.2 1.1-1.1 1.1q-59.4-.03-118.83-.01zM309 472.55h96.52a16 16 0 0110.39 4A17.39 17.39 0 01422 487a19.46 19.46 0 01.33 3.32c0 8.39.07 16.79 0 25.19a62.2 62.2 0 01-3.08 19.27A64.42 64.42 0 01408 555.23a61.61 61.61 0 01-15.71 13.67 60.66 60.66 0 01-22 8.29 69.66 69.66 0 01-11.16.95c-34 0-67.95.07-101.92 0a59.31 59.31 0 01-25.19-5.79 65 65 0 01-14.64-9.35A63.41 63.41 0 01197 529.24a63.25 63.25 0 01-1.35-10.24c-.46-9.51-.2-19-.17-28.54 0-9.16 6.16-16.14 15.16-17.83a7.11 7.11 0 011.31-.05z" transform="translate(-108.82 -149.55)"/>
  <path class="cls-1" d="M293.77 274.29c0 24.8.07 49.59 0 74.39a37.16 37.16 0 01-5 17.78 41.12 41.12 0 01-6.79 9.06 41.1 41.1 0 01-22.77 11.53 53.58 53.58 0 01-12.53.1 38.46 38.46 0 01-14.28-4.49 41.29 41.29 0 01-12.13-10 40.2 40.2 0 01-8.83-18.85 28.66 28.66 0 01-.56-5.46V199.94a37.31 37.31 0 017.31-21.67 40.07 40.07 0 0124.92-16.49 46.47 46.47 0 0111.69-.78 40.52 40.52 0 0116.11 4 39.14 39.14 0 018.5 5.53 40.77 40.77 0 0113.92 25.07 48.2 48.2 0 01.45 6.79q-.01 35.97-.01 71.9zM108.86 289.09c0-19.63-.14-39.27.07-58.91a38.26 38.26 0 018.65-23.5A40.46 40.46 0 01132.21 195a40.05 40.05 0 0114.12-3.74 43.76 43.76 0 0118.7 2.26A40.93 40.93 0 01191 222.94a35.12 35.12 0 01.91 7.09c.5 38.67.1 77.34.18 116a40.48 40.48 0 01-9.09 26.28 39.83 39.83 0 01-23.42 14.3 45.22 45.22 0 01-11.86.83 41.8 41.8 0 01-13.46-3 40 40 0 01-12.14-7.72 40.6 40.6 0 01-9.17-12.28 39.86 39.86 0 01-3.87-14.09c-.18-2.16-.17-4.31-.18-6.46q-.06-27.38-.04-54.8zM497.59 225a49.4 49.4 0 01-1.08 13.37 41.59 41.59 0 01-9.31 18 41.09 41.09 0 01-20.88 12.82 37.92 37.92 0 01-12.18 1.29A41.81 41.81 0 01415.71 239a47.94 47.94 0 01-1.11-7.66 86.67 86.67 0 01-.16-9.93c.22-9.92 3.2-18.91 9.6-26.58a40.73 40.73 0 0123.64-14.18 42 42 0 0133.26 7.35 41 41 0 0116 25.72 50.11 50.11 0 01.65 11.28z" transform="translate(-108.82 -149.55)"/>
  <path class="cls-2" d="M406.08 368.17H380.9a29.5 29.5 0 01-19.56-7.17 32.81 32.81 0 01-11.49-20.51 25.3 25.3 0 011.37-14.42 22.37 22.37 0 0112.4-12.07 23.49 23.49 0 019.22-1.69h66.55a22.9 22.9 0 0122.09 15.32c1.36 3.75 1.32 7.64.95 11.57a31.12 31.12 0 01-3.76 12.15c-4.72 8.61-11.8 14.23-21.48 16.32a25.88 25.88 0 01-5.57.58c-8.51-.11-17.03-.08-25.54-.08z" transform="translate(-108.82 -149.55)"/>
</svg>